<svg width="800" height="600" xmlns="http://www.w3.org/2000/svg">
 <g id="Layer_1">
  <title>Layer 1</title>
  <path stroke-width="0" id="svg_3" d="m336.92646,462.46243l0,0c-62.95487,0 -113.99999,-79.23167 -113.99999,-177c0,-97.7558 51.04512,-177 113.99999,-177l0,0c-35.87801,41.78262 -56.99608,107.3623 -56.99608,177s21.11807,135.20486 56.99608,177z" stroke="#4F80FF" fill="url(#svg_2)"/>
  <path stroke-width="0" id="svg_4" d="m435.92646,462.46243l0,0c-117.62621,0 -213,-79.23167 -213,-177c0,-97.7558 95.37379,-177 213,-177l0,0c-67.03524,41.78262 -106.49269,107.3623 -106.49269,177s39.45745,135.20486 106.49269,177z" stroke="#4F80FF" fill="url(#svg_2)"/>
  <path stroke-width="0" id="svg_5" d="m560.92647,462.46243l0,0c-186.65568,0 -338.00001,-79.23167 -338.00001,-177c0,-97.7558 151.34433,-177 338.00001,-177l0,0c-106.37517,41.78262 -168.9884,107.3623 -168.9884,177s62.61323,135.20486 168.9884,177z" stroke="#4F80FF" fill="url(#svg_2)"/>
 </g>
 <defs>
  <linearGradient spreadMethod="pad" y2="1" x2="0.41406" y1="0" x1="0.88281" id="svg_2">
   <stop offset="0" stop-color="#4F80FF"/>
   <stop offset="1" stop-opacity="0.99609" stop-color="#00bf5f"/>
  </linearGradient>
 </defs>
</svg>